<?xml version="1.0" encoding="UTF-8"?>
<svg width="200px" height="224px" viewBox="0 0 200 224" version="1.1" xmlns="http://www.w3.org/2000/svg" xmlns:xlink="http://www.w3.org/1999/xlink">
    <defs></defs>
    <g stroke="none" stroke-width="1" fill="none" fill-rule="evenodd">
    <g fill="#E75E45">
        <path d="M152.7,48.5 C145.9,46 138.6,44.4 130.9,44.1 C118.2,43.5 106.1,46.3 95.5,51.7 C94.9,52 94.2,52.3 93.5,52.7 L93.5,54.8 L93.5,89.1 C93.5,89.6 93.5,91.5 93.2,93.1 C92.5,96.8 90.3,100.1 87.2,102.2 C84.6,104 81.6,104.8 78.4,104.7 C77.8,104.7 77.1,104.6 76.5,104.5 C74.9,104.2 73.2,103.6 72.7,103.4 C71.3,102.9 50.9,95 41.1,91.2 C39.9,90.7 38.9,90.3 38.1,90 C26.4,99.9 14.1,111.7 2.6,125.6 C2.5,125.7 2,126.3 1.9,126.4 C0.4,128.5 0.3,131.5 1.9,133.8 C3.1,135.5 5,136.5 6.9,136.6 C8.2,136.7 9.6,136.3 10.8,135.5 C10.9,135.4 11,135.3 11.2,135.2 L11.2,135.2 C23.4,126.4 36.8,119.3 51,113.6 C52,113.1 53.2,112.8 54.3,112.9 C55.9,113 57.4,113.6 58.6,114.8 C60.9,117.1 61,120.8 59.1,123.3 L59.1,123.3 C58.3,124.5 57.6,125.7 56.9,126.9 C49.3,139.3 43.2,152.8 38.6,166.9 C38.5,167.3 38.4,167.6 38.3,168 C38.3,168 38.3,168 38.3,168.1 C37.9,169.8 38.2,171.6 39.3,173.1 C40.5,174.8 42.4,175.8 44.4,175.9 C45.8,176 47.1,175.6 48.3,174.8 C48.8,174.4 49.3,174 49.7,173.5 L49.7,173.5 C49.8,173.3 50,173.1 50.1,172.9 L50.1,172.9 C55.1,165.8 60.6,159.1 66.5,152.9 C92.8,124.7 127.7,104.8 166.8,97 L166.8,97 C167.1,96.9 167.4,96.9 167.7,96.9 C169.9,97 171.6,98.9 171.5,101.1 C171.4,103 170.1,104.4 168.3,104.8 C132,112.5 66.6,155.6 89.5,218.2 C89.9,219.2 90.2,219.8 90.7,220.7 C91.9,222.4 93.8,223.4 95.7,223.5 C96.8,223.5 99.9,223.2 101.8,219.8 C105.5,212.8 112.5,205 132.7,196.6 C189,173.3 198.3,140 199.3,118.9 L199.3,117.7 C200.2,86.3 180.7,58.9 152.7,48.5 Z M96.2,213.5 C91,198 91.5,183 97.6,168.7 C109.3,187.6 129.7,189.2 129.7,189.2 C108.8,197.9 100.6,206.5 96.2,213.5 Z" id="Shape"></path>
        <path d="M1.1,50.6 C1.2,50.8 1.4,51 1.5,51.1 L1.5,51.1 C6.8,58.3 12.8,64.6 19.3,70.2 C19.4,70.3 19.5,70.3 19.5,70.4 C23.7,74 31.7,79.2 37.5,81.3 C37.5,81.3 73.6,95.2 75.5,96 C76.2,96.3 77.2,96.6 77.7,96.7 C79.3,97 81,96.7 82.5,95.7 C84,94.7 84.9,93.2 85.2,91.6 C85.3,91 85.4,90 85.4,89.3 L85.4,48.5 C85.5,42.3 83.5,32.9 81.7,27.7 C81.7,27.6 81.6,27.5 81.6,27.4 C78.8,19.3 75,11.4 70.2,3.9 L70.2,3.9 C70.1,3.7 70,3.5 69.9,3.3 L69.8,3.2 C67.8,0.4 63.8,-0.3 60.9,1.7 C60.4,2 60.1,2.4 59.7,2.8 L59.7,2.8 C59.4,3.2 59.2,3.5 58.9,3.9 C52.5,13.2 49.9,24.5 51.6,35.6 C48.3,37.3 44.8,39.6 44.4,39.9 L44.4,39.9 L44.4,39.9 C44,40.2 40.5,42.6 37.8,45.1 C28.1,39.6 16.5,37.9 5.6,40.5 C5.2,40.6 4.7,40.7 4.3,40.8 L4.3,40.8 C3.8,41 3.3,41.2 2.9,41.5 C5.10702591e-14,43.5 -0.8,47.4 1.1,50.4 L1.1,50.6 Z M64.6,10.5 C68,16.2 70.9,22.1 73.2,28.3 C68.6,29.1 64.1,30.3 59.7,31.9 C59.1,24.4 60.8,17 64.6,10.5 Z M31.5,51.3 C28.3,54.8 25.6,58.6 23.2,62.6 C18.3,58.3 13.8,53.4 9.7,48.2 C17.2,46.9 24.7,48 31.5,51.3 Z" id="Shape"></path>
    </g>
    </g>
</svg>
